<mxfile host="app.diagrams.net" modified="2023-04-20T20:32:05.090Z" agent="Mozilla/5.0 (Windows NT 10.0; Win64; x64) AppleWebKit/537.36 (KHTML, like Gecko) Chrome/112.0.0.0 Safari/537.36" etag="MU5OH47paUiRd1BBYlMf" version="21.2.1" type="device">
  <diagram id="C5RBs43oDa-KdzZeNtuy" name="Page-1">
    <mxGraphModel dx="1518" dy="707" grid="1" gridSize="10" guides="1" tooltips="1" connect="1" arrows="1" fold="1" page="1" pageScale="1" pageWidth="827" pageHeight="1169" math="0" shadow="0">
      <root>
        <mxCell id="WIyWlLk6GJQsqaUBKTNV-0" />
        <mxCell id="WIyWlLk6GJQsqaUBKTNV-1" parent="WIyWlLk6GJQsqaUBKTNV-0" />
        <mxCell id="WIyWlLk6GJQsqaUBKTNV-3" value="User" style="rounded=1;whiteSpace=wrap;html=1;fontSize=12;glass=0;strokeWidth=1;shadow=0;labelBackgroundColor=none;fillColor=#F2CC8F;strokeColor=#E07A5F;fontColor=#393C56;" parent="WIyWlLk6GJQsqaUBKTNV-1" vertex="1">
          <mxGeometry x="256.25" y="115" width="120" height="40" as="geometry" />
        </mxCell>
        <mxCell id="WIyWlLk6GJQsqaUBKTNV-11" value="Admin" style="rounded=1;whiteSpace=wrap;html=1;fontSize=12;glass=0;strokeWidth=1;shadow=0;labelBackgroundColor=none;fillColor=#F2CC8F;strokeColor=#E07A5F;fontColor=#393C56;" parent="WIyWlLk6GJQsqaUBKTNV-1" vertex="1">
          <mxGeometry x="160" y="605" width="120" height="40" as="geometry" />
        </mxCell>
        <mxCell id="qj61X7QXaPmRDXE9Q4Wi-1" value="id_admin" style="ellipse;whiteSpace=wrap;html=1;labelBackgroundColor=none;fillColor=#F2CC8F;strokeColor=#E07A5F;fontColor=#393C56;" vertex="1" parent="WIyWlLk6GJQsqaUBKTNV-1">
          <mxGeometry x="125" y="545" width="70" height="30" as="geometry" />
        </mxCell>
        <mxCell id="qj61X7QXaPmRDXE9Q4Wi-3" value="id_user" style="ellipse;whiteSpace=wrap;html=1;labelBackgroundColor=none;fillColor=#F2CC8F;strokeColor=#E07A5F;fontColor=#393C56;" vertex="1" parent="WIyWlLk6GJQsqaUBKTNV-1">
          <mxGeometry x="132.5" y="80" width="70" height="30" as="geometry" />
        </mxCell>
        <mxCell id="qj61X7QXaPmRDXE9Q4Wi-4" value="email" style="ellipse;whiteSpace=wrap;html=1;labelBackgroundColor=none;fillColor=#F2CC8F;strokeColor=#E07A5F;fontColor=#393C56;" vertex="1" parent="WIyWlLk6GJQsqaUBKTNV-1">
          <mxGeometry x="200" y="545" width="70" height="30" as="geometry" />
        </mxCell>
        <mxCell id="qj61X7QXaPmRDXE9Q4Wi-5" value="contraseÃ±a" style="ellipse;whiteSpace=wrap;html=1;labelBackgroundColor=none;fillColor=#F2CC8F;strokeColor=#E07A5F;fontColor=#393C56;" vertex="1" parent="WIyWlLk6GJQsqaUBKTNV-1">
          <mxGeometry x="286.25" y="40" width="70" height="30" as="geometry" />
        </mxCell>
        <mxCell id="qj61X7QXaPmRDXE9Q4Wi-6" value="email" style="ellipse;whiteSpace=wrap;html=1;labelBackgroundColor=none;fillColor=#F2CC8F;strokeColor=#E07A5F;fontColor=#393C56;" vertex="1" parent="WIyWlLk6GJQsqaUBKTNV-1">
          <mxGeometry x="351.25" y="50" width="70" height="30" as="geometry" />
        </mxCell>
        <mxCell id="qj61X7QXaPmRDXE9Q4Wi-7" value="password" style="ellipse;whiteSpace=wrap;html=1;labelBackgroundColor=none;fillColor=#F2CC8F;strokeColor=#E07A5F;fontColor=#393C56;" vertex="1" parent="WIyWlLk6GJQsqaUBKTNV-1">
          <mxGeometry x="270" y="545" width="70" height="30" as="geometry" />
        </mxCell>
        <mxCell id="qj61X7QXaPmRDXE9Q4Wi-8" value="telefono" style="ellipse;whiteSpace=wrap;html=1;labelBackgroundColor=none;fillColor=#F2CC8F;strokeColor=#E07A5F;fontColor=#393C56;" vertex="1" parent="WIyWlLk6GJQsqaUBKTNV-1">
          <mxGeometry x="388.75" y="75" width="70" height="30" as="geometry" />
        </mxCell>
        <mxCell id="qj61X7QXaPmRDXE9Q4Wi-10" value="edad" style="ellipse;whiteSpace=wrap;html=1;labelBackgroundColor=none;fillColor=#F2CC8F;strokeColor=#E07A5F;fontColor=#393C56;" vertex="1" parent="WIyWlLk6GJQsqaUBKTNV-1">
          <mxGeometry x="401.25" y="105" width="70" height="30" as="geometry" />
        </mxCell>
        <mxCell id="qj61X7QXaPmRDXE9Q4Wi-11" value="ciudad" style="ellipse;whiteSpace=wrap;html=1;labelBackgroundColor=none;fillColor=#F2CC8F;strokeColor=#E07A5F;fontColor=#393C56;" vertex="1" parent="WIyWlLk6GJQsqaUBKTNV-1">
          <mxGeometry x="411.25" y="135" width="70" height="30" as="geometry" />
        </mxCell>
        <mxCell id="qj61X7QXaPmRDXE9Q4Wi-12" value="estado_reserva" style="ellipse;whiteSpace=wrap;html=1;labelBackgroundColor=none;fillColor=#F2CC8F;strokeColor=#E07A5F;fontColor=#393C56;" vertex="1" parent="WIyWlLk6GJQsqaUBKTNV-1">
          <mxGeometry x="117.5" y="115" width="100" height="30" as="geometry" />
        </mxCell>
        <mxCell id="qj61X7QXaPmRDXE9Q4Wi-13" value="nombre" style="ellipse;whiteSpace=wrap;html=1;labelBackgroundColor=none;fillColor=#F2CC8F;strokeColor=#E07A5F;fontColor=#393C56;" vertex="1" parent="WIyWlLk6GJQsqaUBKTNV-1">
          <mxGeometry x="136.25" y="45" width="70" height="30" as="geometry" />
        </mxCell>
        <mxCell id="qj61X7QXaPmRDXE9Q4Wi-14" value="apellido" style="ellipse;whiteSpace=wrap;html=1;labelBackgroundColor=none;fillColor=#F2CC8F;strokeColor=#E07A5F;fontColor=#393C56;" vertex="1" parent="WIyWlLk6GJQsqaUBKTNV-1">
          <mxGeometry x="211.25" y="40" width="70" height="30" as="geometry" />
        </mxCell>
        <mxCell id="qj61X7QXaPmRDXE9Q4Wi-16" value="" style="endArrow=classic;html=1;rounded=0;entryX=1;entryY=0.5;entryDx=0;entryDy=0;labelBackgroundColor=none;strokeColor=#E07A5F;fontColor=default;exitX=0;exitY=0;exitDx=0;exitDy=0;" edge="1" parent="WIyWlLk6GJQsqaUBKTNV-1" source="WIyWlLk6GJQsqaUBKTNV-3" target="qj61X7QXaPmRDXE9Q4Wi-3">
          <mxGeometry width="50" height="50" relative="1" as="geometry">
            <mxPoint x="261.25" y="110" as="sourcePoint" />
            <mxPoint x="211.25" y="75" as="targetPoint" />
          </mxGeometry>
        </mxCell>
        <mxCell id="qj61X7QXaPmRDXE9Q4Wi-18" value="" style="endArrow=classic;html=1;rounded=0;exitX=0.25;exitY=0;exitDx=0;exitDy=0;labelBackgroundColor=none;strokeColor=#E07A5F;fontColor=default;" edge="1" parent="WIyWlLk6GJQsqaUBKTNV-1" source="WIyWlLk6GJQsqaUBKTNV-3" target="qj61X7QXaPmRDXE9Q4Wi-13">
          <mxGeometry width="50" height="50" relative="1" as="geometry">
            <mxPoint x="316.25" y="365" as="sourcePoint" />
            <mxPoint x="366.25" y="315" as="targetPoint" />
          </mxGeometry>
        </mxCell>
        <mxCell id="qj61X7QXaPmRDXE9Q4Wi-19" value="" style="endArrow=classic;html=1;rounded=0;entryX=0.6;entryY=1;entryDx=0;entryDy=0;entryPerimeter=0;exitX=0.25;exitY=0;exitDx=0;exitDy=0;labelBackgroundColor=none;strokeColor=#E07A5F;fontColor=default;" edge="1" parent="WIyWlLk6GJQsqaUBKTNV-1" source="WIyWlLk6GJQsqaUBKTNV-3" target="qj61X7QXaPmRDXE9Q4Wi-14">
          <mxGeometry width="50" height="50" relative="1" as="geometry">
            <mxPoint x="316.25" y="365" as="sourcePoint" />
            <mxPoint x="366.25" y="315" as="targetPoint" />
          </mxGeometry>
        </mxCell>
        <mxCell id="qj61X7QXaPmRDXE9Q4Wi-20" value="" style="endArrow=classic;html=1;rounded=0;labelBackgroundColor=none;strokeColor=#E07A5F;fontColor=default;" edge="1" parent="WIyWlLk6GJQsqaUBKTNV-1" source="WIyWlLk6GJQsqaUBKTNV-3" target="qj61X7QXaPmRDXE9Q4Wi-5">
          <mxGeometry width="50" height="50" relative="1" as="geometry">
            <mxPoint x="316.25" y="365" as="sourcePoint" />
            <mxPoint x="366.25" y="315" as="targetPoint" />
          </mxGeometry>
        </mxCell>
        <mxCell id="qj61X7QXaPmRDXE9Q4Wi-21" value="" style="endArrow=classic;html=1;rounded=0;entryX=0;entryY=1;entryDx=0;entryDy=0;labelBackgroundColor=none;strokeColor=#E07A5F;fontColor=default;" edge="1" parent="WIyWlLk6GJQsqaUBKTNV-1" source="WIyWlLk6GJQsqaUBKTNV-3" target="qj61X7QXaPmRDXE9Q4Wi-6">
          <mxGeometry width="50" height="50" relative="1" as="geometry">
            <mxPoint x="316.25" y="365" as="sourcePoint" />
            <mxPoint x="366.25" y="315" as="targetPoint" />
          </mxGeometry>
        </mxCell>
        <mxCell id="qj61X7QXaPmRDXE9Q4Wi-22" value="" style="endArrow=classic;html=1;rounded=0;entryX=0;entryY=0.5;entryDx=0;entryDy=0;exitX=0.75;exitY=0;exitDx=0;exitDy=0;labelBackgroundColor=none;strokeColor=#E07A5F;fontColor=default;" edge="1" parent="WIyWlLk6GJQsqaUBKTNV-1" source="WIyWlLk6GJQsqaUBKTNV-3" target="qj61X7QXaPmRDXE9Q4Wi-8">
          <mxGeometry width="50" height="50" relative="1" as="geometry">
            <mxPoint x="316.25" y="365" as="sourcePoint" />
            <mxPoint x="366.25" y="315" as="targetPoint" />
          </mxGeometry>
        </mxCell>
        <mxCell id="qj61X7QXaPmRDXE9Q4Wi-23" value="" style="endArrow=classic;html=1;rounded=0;entryX=0;entryY=0.5;entryDx=0;entryDy=0;labelBackgroundColor=none;strokeColor=#E07A5F;fontColor=default;" edge="1" parent="WIyWlLk6GJQsqaUBKTNV-1" source="WIyWlLk6GJQsqaUBKTNV-3" target="qj61X7QXaPmRDXE9Q4Wi-10">
          <mxGeometry width="50" height="50" relative="1" as="geometry">
            <mxPoint x="316.25" y="365" as="sourcePoint" />
            <mxPoint x="366.25" y="315" as="targetPoint" />
          </mxGeometry>
        </mxCell>
        <mxCell id="qj61X7QXaPmRDXE9Q4Wi-24" value="" style="endArrow=classic;html=1;rounded=0;entryX=0.054;entryY=0.5;entryDx=0;entryDy=0;labelBackgroundColor=none;strokeColor=#E07A5F;fontColor=default;entryPerimeter=0;" edge="1" parent="WIyWlLk6GJQsqaUBKTNV-1" source="WIyWlLk6GJQsqaUBKTNV-3">
          <mxGeometry width="50" height="50" relative="1" as="geometry">
            <mxPoint x="316.25" y="365" as="sourcePoint" />
            <mxPoint x="411.2800000000002" y="150" as="targetPoint" />
          </mxGeometry>
        </mxCell>
        <mxCell id="qj61X7QXaPmRDXE9Q4Wi-25" value="" style="endArrow=classic;html=1;rounded=0;labelBackgroundColor=none;strokeColor=#E07A5F;fontColor=default;exitX=0;exitY=0.5;exitDx=0;exitDy=0;entryX=1;entryY=0.5;entryDx=0;entryDy=0;" edge="1" parent="WIyWlLk6GJQsqaUBKTNV-1" source="WIyWlLk6GJQsqaUBKTNV-3" target="qj61X7QXaPmRDXE9Q4Wi-12">
          <mxGeometry width="50" height="50" relative="1" as="geometry">
            <mxPoint x="261.25" y="135" as="sourcePoint" />
            <mxPoint x="221.25" y="120" as="targetPoint" />
          </mxGeometry>
        </mxCell>
        <mxCell id="qj61X7QXaPmRDXE9Q4Wi-26" value="" style="endArrow=classic;html=1;rounded=0;entryX=0.5;entryY=1;entryDx=0;entryDy=0;labelBackgroundColor=none;strokeColor=#E07A5F;fontColor=default;exitX=0.175;exitY=0.025;exitDx=0;exitDy=0;exitPerimeter=0;" edge="1" parent="WIyWlLk6GJQsqaUBKTNV-1" source="WIyWlLk6GJQsqaUBKTNV-11">
          <mxGeometry width="50" height="50" relative="1" as="geometry">
            <mxPoint x="260" y="680" as="sourcePoint" />
            <mxPoint x="165" y="575" as="targetPoint" />
          </mxGeometry>
        </mxCell>
        <mxCell id="qj61X7QXaPmRDXE9Q4Wi-27" value="" style="endArrow=classic;html=1;rounded=0;entryX=0.5;entryY=1;entryDx=0;entryDy=0;labelBackgroundColor=none;strokeColor=#E07A5F;fontColor=default;" edge="1" parent="WIyWlLk6GJQsqaUBKTNV-1" target="qj61X7QXaPmRDXE9Q4Wi-4">
          <mxGeometry width="50" height="50" relative="1" as="geometry">
            <mxPoint x="230" y="605" as="sourcePoint" />
            <mxPoint x="310" y="630" as="targetPoint" />
          </mxGeometry>
        </mxCell>
        <mxCell id="qj61X7QXaPmRDXE9Q4Wi-29" value="Reserva" style="rounded=1;whiteSpace=wrap;html=1;fontSize=12;glass=0;strokeWidth=1;shadow=0;labelBackgroundColor=none;fillColor=#F2CC8F;strokeColor=#E07A5F;fontColor=#393C56;" vertex="1" parent="WIyWlLk6GJQsqaUBKTNV-1">
          <mxGeometry x="508.75" y="215" width="120" height="40" as="geometry" />
        </mxCell>
        <mxCell id="qj61X7QXaPmRDXE9Q4Wi-30" value="id_reserva" style="ellipse;whiteSpace=wrap;html=1;labelBackgroundColor=none;fillColor=#F2CC8F;strokeColor=#E07A5F;fontColor=#393C56;" vertex="1" parent="WIyWlLk6GJQsqaUBKTNV-1">
          <mxGeometry x="678.75" y="205" width="70" height="30" as="geometry" />
        </mxCell>
        <mxCell id="qj61X7QXaPmRDXE9Q4Wi-31" value="fecha_reserva" style="ellipse;whiteSpace=wrap;html=1;labelBackgroundColor=none;fillColor=#F2CC8F;strokeColor=#E07A5F;fontColor=#393C56;" vertex="1" parent="WIyWlLk6GJQsqaUBKTNV-1">
          <mxGeometry x="668.75" y="245" width="90" height="30" as="geometry" />
        </mxCell>
        <mxCell id="qj61X7QXaPmRDXE9Q4Wi-32" value="nro_reserva" style="ellipse;whiteSpace=wrap;html=1;labelBackgroundColor=none;fillColor=#F2CC8F;strokeColor=#E07A5F;fontColor=#393C56;" vertex="1" parent="WIyWlLk6GJQsqaUBKTNV-1">
          <mxGeometry x="678.75" y="285" width="70" height="30" as="geometry" />
        </mxCell>
        <mxCell id="qj61X7QXaPmRDXE9Q4Wi-33" value="valor" style="ellipse;whiteSpace=wrap;html=1;labelBackgroundColor=none;fillColor=#F2CC8F;strokeColor=#E07A5F;fontColor=#393C56;" vertex="1" parent="WIyWlLk6GJQsqaUBKTNV-1">
          <mxGeometry x="678.75" y="325" width="70" height="30" as="geometry" />
        </mxCell>
        <mxCell id="qj61X7QXaPmRDXE9Q4Wi-34" value="id_factura" style="ellipse;whiteSpace=wrap;html=1;labelBackgroundColor=none;fillColor=#F2CC8F;strokeColor=#E07A5F;fontColor=#393C56;" vertex="1" parent="WIyWlLk6GJQsqaUBKTNV-1">
          <mxGeometry x="598.75" y="325" width="70" height="30" as="geometry" />
        </mxCell>
        <mxCell id="qj61X7QXaPmRDXE9Q4Wi-35" value="id_recorrido" style="ellipse;whiteSpace=wrap;html=1;labelBackgroundColor=none;fillColor=#F2CC8F;strokeColor=#E07A5F;fontColor=#393C56;" vertex="1" parent="WIyWlLk6GJQsqaUBKTNV-1">
          <mxGeometry x="485" y="165" width="70" height="30" as="geometry" />
        </mxCell>
        <mxCell id="qj61X7QXaPmRDXE9Q4Wi-36" value="id_usuario" style="ellipse;whiteSpace=wrap;html=1;labelBackgroundColor=none;fillColor=#F2CC8F;strokeColor=#E07A5F;fontColor=#393C56;" vertex="1" parent="WIyWlLk6GJQsqaUBKTNV-1">
          <mxGeometry x="571.25" y="165" width="70" height="30" as="geometry" />
        </mxCell>
        <mxCell id="qj61X7QXaPmRDXE9Q4Wi-37" value="" style="endArrow=classic;html=1;rounded=0;entryX=0;entryY=0.5;entryDx=0;entryDy=0;labelBackgroundColor=none;strokeColor=#E07A5F;fontColor=default;" edge="1" parent="WIyWlLk6GJQsqaUBKTNV-1" target="qj61X7QXaPmRDXE9Q4Wi-30">
          <mxGeometry width="50" height="50" relative="1" as="geometry">
            <mxPoint x="628.75" y="220" as="sourcePoint" />
            <mxPoint x="688.75" y="90" as="targetPoint" />
          </mxGeometry>
        </mxCell>
        <mxCell id="qj61X7QXaPmRDXE9Q4Wi-38" value="" style="endArrow=classic;html=1;rounded=0;entryX=0;entryY=0.5;entryDx=0;entryDy=0;exitX=1;exitY=0.5;exitDx=0;exitDy=0;labelBackgroundColor=none;strokeColor=#E07A5F;fontColor=default;" edge="1" parent="WIyWlLk6GJQsqaUBKTNV-1" source="qj61X7QXaPmRDXE9Q4Wi-29" target="qj61X7QXaPmRDXE9Q4Wi-31">
          <mxGeometry width="50" height="50" relative="1" as="geometry">
            <mxPoint x="648.75" y="130" as="sourcePoint" />
            <mxPoint x="698.75" y="100" as="targetPoint" />
          </mxGeometry>
        </mxCell>
        <mxCell id="qj61X7QXaPmRDXE9Q4Wi-39" value="" style="endArrow=classic;html=1;rounded=0;entryX=0;entryY=0.5;entryDx=0;entryDy=0;exitX=1;exitY=1;exitDx=0;exitDy=0;labelBackgroundColor=none;strokeColor=#E07A5F;fontColor=default;" edge="1" parent="WIyWlLk6GJQsqaUBKTNV-1" source="qj61X7QXaPmRDXE9Q4Wi-29" target="qj61X7QXaPmRDXE9Q4Wi-32">
          <mxGeometry width="50" height="50" relative="1" as="geometry">
            <mxPoint x="658.75" y="140" as="sourcePoint" />
            <mxPoint x="708.75" y="110" as="targetPoint" />
          </mxGeometry>
        </mxCell>
        <mxCell id="qj61X7QXaPmRDXE9Q4Wi-40" value="" style="endArrow=classic;html=1;rounded=0;entryX=0.5;entryY=0;entryDx=0;entryDy=0;exitX=0.833;exitY=1.05;exitDx=0;exitDy=0;exitPerimeter=0;labelBackgroundColor=none;strokeColor=#E07A5F;fontColor=default;" edge="1" parent="WIyWlLk6GJQsqaUBKTNV-1" source="qj61X7QXaPmRDXE9Q4Wi-29" target="qj61X7QXaPmRDXE9Q4Wi-34">
          <mxGeometry width="50" height="50" relative="1" as="geometry">
            <mxPoint x="638.75" y="265" as="sourcePoint" />
            <mxPoint x="688.75" y="310" as="targetPoint" />
          </mxGeometry>
        </mxCell>
        <mxCell id="qj61X7QXaPmRDXE9Q4Wi-41" value="" style="endArrow=classic;html=1;rounded=0;exitX=0.25;exitY=0;exitDx=0;exitDy=0;labelBackgroundColor=none;strokeColor=#E07A5F;fontColor=default;" edge="1" parent="WIyWlLk6GJQsqaUBKTNV-1" source="qj61X7QXaPmRDXE9Q4Wi-29" target="qj61X7QXaPmRDXE9Q4Wi-35">
          <mxGeometry width="50" height="50" relative="1" as="geometry">
            <mxPoint x="648.75" y="275" as="sourcePoint" />
            <mxPoint x="698.75" y="320" as="targetPoint" />
          </mxGeometry>
        </mxCell>
        <mxCell id="qj61X7QXaPmRDXE9Q4Wi-42" value="" style="endArrow=classic;html=1;rounded=0;entryX=0.5;entryY=1;entryDx=0;entryDy=0;exitX=0.75;exitY=0;exitDx=0;exitDy=0;labelBackgroundColor=none;strokeColor=#E07A5F;fontColor=default;" edge="1" parent="WIyWlLk6GJQsqaUBKTNV-1" source="qj61X7QXaPmRDXE9Q4Wi-29" target="qj61X7QXaPmRDXE9Q4Wi-36">
          <mxGeometry width="50" height="50" relative="1" as="geometry">
            <mxPoint x="658.75" y="285" as="sourcePoint" />
            <mxPoint x="473.75" y="325" as="targetPoint" />
          </mxGeometry>
        </mxCell>
        <mxCell id="qj61X7QXaPmRDXE9Q4Wi-43" value="Recorrido" style="rounded=1;whiteSpace=wrap;html=1;fontSize=12;glass=0;strokeWidth=1;shadow=0;labelBackgroundColor=none;fillColor=#F2CC8F;strokeColor=#E07A5F;fontColor=#393C56;" vertex="1" parent="WIyWlLk6GJQsqaUBKTNV-1">
          <mxGeometry x="500" y="445" width="120" height="40" as="geometry" />
        </mxCell>
        <mxCell id="qj61X7QXaPmRDXE9Q4Wi-44" value="id_recorrido" style="ellipse;whiteSpace=wrap;html=1;labelBackgroundColor=none;fillColor=#F2CC8F;strokeColor=#E07A5F;fontColor=#393C56;" vertex="1" parent="WIyWlLk6GJQsqaUBKTNV-1">
          <mxGeometry x="640" y="385" width="70" height="30" as="geometry" />
        </mxCell>
        <mxCell id="qj61X7QXaPmRDXE9Q4Wi-45" value="nombre" style="ellipse;whiteSpace=wrap;html=1;labelBackgroundColor=none;fillColor=#F2CC8F;strokeColor=#E07A5F;fontColor=#393C56;" vertex="1" parent="WIyWlLk6GJQsqaUBKTNV-1">
          <mxGeometry x="640" y="415" width="90" height="30" as="geometry" />
        </mxCell>
        <mxCell id="qj61X7QXaPmRDXE9Q4Wi-46" value="nivel" style="ellipse;whiteSpace=wrap;html=1;labelBackgroundColor=none;fillColor=#F2CC8F;strokeColor=#E07A5F;fontColor=#393C56;" vertex="1" parent="WIyWlLk6GJQsqaUBKTNV-1">
          <mxGeometry x="652.5" y="445" width="70" height="30" as="geometry" />
        </mxCell>
        <mxCell id="qj61X7QXaPmRDXE9Q4Wi-47" value="imagen" style="ellipse;whiteSpace=wrap;html=1;labelBackgroundColor=none;fillColor=#F2CC8F;strokeColor=#E07A5F;fontColor=#393C56;" vertex="1" parent="WIyWlLk6GJQsqaUBKTNV-1">
          <mxGeometry x="660" y="475" width="70" height="30" as="geometry" />
        </mxCell>
        <mxCell id="qj61X7QXaPmRDXE9Q4Wi-48" value="costo" style="ellipse;whiteSpace=wrap;html=1;labelBackgroundColor=none;fillColor=#F2CC8F;strokeColor=#E07A5F;fontColor=#393C56;" vertex="1" parent="WIyWlLk6GJQsqaUBKTNV-1">
          <mxGeometry x="660" y="505" width="70" height="30" as="geometry" />
        </mxCell>
        <mxCell id="qj61X7QXaPmRDXE9Q4Wi-49" value="fecha_recorrido" style="ellipse;whiteSpace=wrap;html=1;labelBackgroundColor=none;fillColor=#F2CC8F;strokeColor=#E07A5F;fontColor=#393C56;" vertex="1" parent="WIyWlLk6GJQsqaUBKTNV-1">
          <mxGeometry x="625" y="540" width="100" height="30" as="geometry" />
        </mxCell>
        <mxCell id="qj61X7QXaPmRDXE9Q4Wi-50" value="id_admin" style="ellipse;whiteSpace=wrap;html=1;labelBackgroundColor=none;fillColor=#F2CC8F;strokeColor=#E07A5F;fontColor=#393C56;" vertex="1" parent="WIyWlLk6GJQsqaUBKTNV-1">
          <mxGeometry x="562.5" y="555" width="70" height="30" as="geometry" />
        </mxCell>
        <mxCell id="qj61X7QXaPmRDXE9Q4Wi-51" value="" style="endArrow=classic;html=1;rounded=0;entryX=0;entryY=0.5;entryDx=0;entryDy=0;labelBackgroundColor=none;strokeColor=#E07A5F;fontColor=default;" edge="1" parent="WIyWlLk6GJQsqaUBKTNV-1" target="qj61X7QXaPmRDXE9Q4Wi-44">
          <mxGeometry width="50" height="50" relative="1" as="geometry">
            <mxPoint x="620" y="450" as="sourcePoint" />
            <mxPoint x="680" y="320" as="targetPoint" />
          </mxGeometry>
        </mxCell>
        <mxCell id="qj61X7QXaPmRDXE9Q4Wi-52" value="" style="endArrow=classic;html=1;rounded=0;entryX=0;entryY=0.5;entryDx=0;entryDy=0;exitX=1;exitY=0.5;exitDx=0;exitDy=0;labelBackgroundColor=none;strokeColor=#E07A5F;fontColor=default;" edge="1" parent="WIyWlLk6GJQsqaUBKTNV-1" source="qj61X7QXaPmRDXE9Q4Wi-43" target="qj61X7QXaPmRDXE9Q4Wi-45">
          <mxGeometry width="50" height="50" relative="1" as="geometry">
            <mxPoint x="640" y="360" as="sourcePoint" />
            <mxPoint x="690" y="330" as="targetPoint" />
          </mxGeometry>
        </mxCell>
        <mxCell id="qj61X7QXaPmRDXE9Q4Wi-53" value="" style="endArrow=classic;html=1;rounded=0;entryX=0;entryY=0.5;entryDx=0;entryDy=0;exitX=1;exitY=0.75;exitDx=0;exitDy=0;labelBackgroundColor=none;strokeColor=#E07A5F;fontColor=default;" edge="1" parent="WIyWlLk6GJQsqaUBKTNV-1" source="qj61X7QXaPmRDXE9Q4Wi-43" target="qj61X7QXaPmRDXE9Q4Wi-46">
          <mxGeometry width="50" height="50" relative="1" as="geometry">
            <mxPoint x="650" y="370" as="sourcePoint" />
            <mxPoint x="700" y="340" as="targetPoint" />
          </mxGeometry>
        </mxCell>
        <mxCell id="qj61X7QXaPmRDXE9Q4Wi-54" value="" style="endArrow=classic;html=1;rounded=0;entryX=0.014;entryY=0.233;entryDx=0;entryDy=0;exitX=0.833;exitY=1.05;exitDx=0;exitDy=0;exitPerimeter=0;entryPerimeter=0;labelBackgroundColor=none;strokeColor=#E07A5F;fontColor=default;" edge="1" parent="WIyWlLk6GJQsqaUBKTNV-1" source="qj61X7QXaPmRDXE9Q4Wi-43" target="qj61X7QXaPmRDXE9Q4Wi-48">
          <mxGeometry width="50" height="50" relative="1" as="geometry">
            <mxPoint x="630" y="495" as="sourcePoint" />
            <mxPoint x="680" y="540" as="targetPoint" />
          </mxGeometry>
        </mxCell>
        <mxCell id="qj61X7QXaPmRDXE9Q4Wi-55" value="" style="endArrow=classic;html=1;rounded=0;exitX=0.5;exitY=1;exitDx=0;exitDy=0;labelBackgroundColor=none;strokeColor=#E07A5F;fontColor=default;" edge="1" parent="WIyWlLk6GJQsqaUBKTNV-1" source="qj61X7QXaPmRDXE9Q4Wi-43" target="qj61X7QXaPmRDXE9Q4Wi-49">
          <mxGeometry width="50" height="50" relative="1" as="geometry">
            <mxPoint x="640" y="505" as="sourcePoint" />
            <mxPoint x="690" y="550" as="targetPoint" />
          </mxGeometry>
        </mxCell>
        <mxCell id="qj61X7QXaPmRDXE9Q4Wi-56" value="" style="endArrow=classic;html=1;rounded=0;entryX=0.5;entryY=0;entryDx=0;entryDy=0;exitX=0.342;exitY=1.075;exitDx=0;exitDy=0;exitPerimeter=0;labelBackgroundColor=none;strokeColor=#E07A5F;fontColor=default;" edge="1" parent="WIyWlLk6GJQsqaUBKTNV-1" source="qj61X7QXaPmRDXE9Q4Wi-43" target="qj61X7QXaPmRDXE9Q4Wi-50">
          <mxGeometry width="50" height="50" relative="1" as="geometry">
            <mxPoint x="650" y="515" as="sourcePoint" />
            <mxPoint x="700" y="560" as="targetPoint" />
          </mxGeometry>
        </mxCell>
        <mxCell id="qj61X7QXaPmRDXE9Q4Wi-57" value="" style="endArrow=classic;html=1;rounded=0;entryX=0;entryY=0.5;entryDx=0;entryDy=0;exitX=0.908;exitY=1.05;exitDx=0;exitDy=0;exitPerimeter=0;labelBackgroundColor=none;strokeColor=#E07A5F;fontColor=default;" edge="1" parent="WIyWlLk6GJQsqaUBKTNV-1" source="qj61X7QXaPmRDXE9Q4Wi-29" target="qj61X7QXaPmRDXE9Q4Wi-33">
          <mxGeometry width="50" height="50" relative="1" as="geometry">
            <mxPoint x="638.75" y="265" as="sourcePoint" />
            <mxPoint x="688.75" y="310" as="targetPoint" />
          </mxGeometry>
        </mxCell>
        <mxCell id="qj61X7QXaPmRDXE9Q4Wi-58" value="" style="endArrow=classic;html=1;rounded=0;entryX=0.057;entryY=0.267;entryDx=0;entryDy=0;entryPerimeter=0;labelBackgroundColor=none;strokeColor=#E07A5F;fontColor=default;" edge="1" parent="WIyWlLk6GJQsqaUBKTNV-1" target="qj61X7QXaPmRDXE9Q4Wi-47">
          <mxGeometry width="50" height="50" relative="1" as="geometry">
            <mxPoint x="610" y="485" as="sourcePoint" />
            <mxPoint x="700" y="390" as="targetPoint" />
          </mxGeometry>
        </mxCell>
        <mxCell id="qj61X7QXaPmRDXE9Q4Wi-59" value="id_guia" style="ellipse;whiteSpace=wrap;html=1;labelBackgroundColor=none;fillColor=#F2CC8F;strokeColor=#E07A5F;fontColor=#393C56;" vertex="1" parent="WIyWlLk6GJQsqaUBKTNV-1">
          <mxGeometry x="492.5" y="555" width="70" height="30" as="geometry" />
        </mxCell>
        <mxCell id="qj61X7QXaPmRDXE9Q4Wi-60" value="" style="endArrow=classic;html=1;rounded=0;entryX=0.5;entryY=0;entryDx=0;entryDy=0;exitX=0.25;exitY=1;exitDx=0;exitDy=0;labelBackgroundColor=none;strokeColor=#E07A5F;fontColor=default;" edge="1" parent="WIyWlLk6GJQsqaUBKTNV-1" target="qj61X7QXaPmRDXE9Q4Wi-59" source="qj61X7QXaPmRDXE9Q4Wi-43">
          <mxGeometry width="50" height="50" relative="1" as="geometry">
            <mxPoint x="500" y="455" as="sourcePoint" />
            <mxPoint x="385" y="505" as="targetPoint" />
          </mxGeometry>
        </mxCell>
        <mxCell id="qj61X7QXaPmRDXE9Q4Wi-61" value="Guia" style="rounded=1;whiteSpace=wrap;html=1;fontSize=12;glass=0;strokeWidth=1;shadow=0;labelBackgroundColor=none;fillColor=#F2CC8F;strokeColor=#E07A5F;fontColor=#393C56;" vertex="1" parent="WIyWlLk6GJQsqaUBKTNV-1">
          <mxGeometry x="500" y="615" width="120" height="40" as="geometry" />
        </mxCell>
        <mxCell id="qj61X7QXaPmRDXE9Q4Wi-62" value="id_guia" style="ellipse;whiteSpace=wrap;html=1;labelBackgroundColor=none;fillColor=#F2CC8F;strokeColor=#E07A5F;fontColor=#393C56;" vertex="1" parent="WIyWlLk6GJQsqaUBKTNV-1">
          <mxGeometry x="650" y="615" width="70" height="30" as="geometry" />
        </mxCell>
        <mxCell id="qj61X7QXaPmRDXE9Q4Wi-63" value="nombre" style="ellipse;whiteSpace=wrap;html=1;labelBackgroundColor=none;fillColor=#F2CC8F;strokeColor=#E07A5F;fontColor=#393C56;" vertex="1" parent="WIyWlLk6GJQsqaUBKTNV-1">
          <mxGeometry x="640" y="655" width="90" height="30" as="geometry" />
        </mxCell>
        <mxCell id="qj61X7QXaPmRDXE9Q4Wi-64" value="apellido" style="ellipse;whiteSpace=wrap;html=1;labelBackgroundColor=none;fillColor=#F2CC8F;strokeColor=#E07A5F;fontColor=#393C56;" vertex="1" parent="WIyWlLk6GJQsqaUBKTNV-1">
          <mxGeometry x="650" y="695" width="70" height="30" as="geometry" />
        </mxCell>
        <mxCell id="qj61X7QXaPmRDXE9Q4Wi-65" value="foto" style="ellipse;whiteSpace=wrap;html=1;labelBackgroundColor=none;fillColor=#F2CC8F;strokeColor=#E07A5F;fontColor=#393C56;" vertex="1" parent="WIyWlLk6GJQsqaUBKTNV-1">
          <mxGeometry x="650" y="735" width="70" height="30" as="geometry" />
        </mxCell>
        <mxCell id="qj61X7QXaPmRDXE9Q4Wi-66" value="reseÃ±a" style="ellipse;whiteSpace=wrap;html=1;labelBackgroundColor=none;fillColor=#F2CC8F;strokeColor=#E07A5F;fontColor=#393C56;" vertex="1" parent="WIyWlLk6GJQsqaUBKTNV-1">
          <mxGeometry x="570" y="735" width="70" height="30" as="geometry" />
        </mxCell>
        <mxCell id="qj61X7QXaPmRDXE9Q4Wi-68" value="id_admin" style="ellipse;whiteSpace=wrap;html=1;labelBackgroundColor=none;fillColor=#F2CC8F;strokeColor=#E07A5F;fontColor=#393C56;" vertex="1" parent="WIyWlLk6GJQsqaUBKTNV-1">
          <mxGeometry x="492.5" y="735" width="70" height="30" as="geometry" />
        </mxCell>
        <mxCell id="qj61X7QXaPmRDXE9Q4Wi-69" value="" style="endArrow=classic;html=1;rounded=0;entryX=0;entryY=0.5;entryDx=0;entryDy=0;labelBackgroundColor=none;strokeColor=#E07A5F;fontColor=default;" edge="1" parent="WIyWlLk6GJQsqaUBKTNV-1" target="qj61X7QXaPmRDXE9Q4Wi-62">
          <mxGeometry width="50" height="50" relative="1" as="geometry">
            <mxPoint x="620" y="630" as="sourcePoint" />
            <mxPoint x="660" y="500" as="targetPoint" />
          </mxGeometry>
        </mxCell>
        <mxCell id="qj61X7QXaPmRDXE9Q4Wi-70" value="" style="endArrow=classic;html=1;rounded=0;entryX=0;entryY=0.5;entryDx=0;entryDy=0;exitX=1;exitY=0.5;exitDx=0;exitDy=0;labelBackgroundColor=none;strokeColor=#E07A5F;fontColor=default;" edge="1" parent="WIyWlLk6GJQsqaUBKTNV-1" source="qj61X7QXaPmRDXE9Q4Wi-61" target="qj61X7QXaPmRDXE9Q4Wi-63">
          <mxGeometry width="50" height="50" relative="1" as="geometry">
            <mxPoint x="620" y="540" as="sourcePoint" />
            <mxPoint x="670" y="510" as="targetPoint" />
          </mxGeometry>
        </mxCell>
        <mxCell id="qj61X7QXaPmRDXE9Q4Wi-71" value="" style="endArrow=classic;html=1;rounded=0;entryX=0;entryY=0.5;entryDx=0;entryDy=0;exitX=1;exitY=1;exitDx=0;exitDy=0;labelBackgroundColor=none;strokeColor=#E07A5F;fontColor=default;" edge="1" parent="WIyWlLk6GJQsqaUBKTNV-1" source="qj61X7QXaPmRDXE9Q4Wi-61" target="qj61X7QXaPmRDXE9Q4Wi-64">
          <mxGeometry width="50" height="50" relative="1" as="geometry">
            <mxPoint x="630" y="550" as="sourcePoint" />
            <mxPoint x="680" y="520" as="targetPoint" />
          </mxGeometry>
        </mxCell>
        <mxCell id="qj61X7QXaPmRDXE9Q4Wi-72" value="" style="endArrow=classic;html=1;rounded=0;entryX=0.5;entryY=0;entryDx=0;entryDy=0;exitX=0.833;exitY=1.05;exitDx=0;exitDy=0;exitPerimeter=0;labelBackgroundColor=none;strokeColor=#E07A5F;fontColor=default;" edge="1" parent="WIyWlLk6GJQsqaUBKTNV-1" source="qj61X7QXaPmRDXE9Q4Wi-61" target="qj61X7QXaPmRDXE9Q4Wi-66">
          <mxGeometry width="50" height="50" relative="1" as="geometry">
            <mxPoint x="610" y="675" as="sourcePoint" />
            <mxPoint x="660" y="720" as="targetPoint" />
          </mxGeometry>
        </mxCell>
        <mxCell id="qj61X7QXaPmRDXE9Q4Wi-74" value="" style="endArrow=classic;html=1;rounded=0;entryX=0.5;entryY=0;entryDx=0;entryDy=0;exitX=0.5;exitY=1;exitDx=0;exitDy=0;labelBackgroundColor=none;strokeColor=#E07A5F;fontColor=default;" edge="1" parent="WIyWlLk6GJQsqaUBKTNV-1" source="qj61X7QXaPmRDXE9Q4Wi-61" target="qj61X7QXaPmRDXE9Q4Wi-68">
          <mxGeometry width="50" height="50" relative="1" as="geometry">
            <mxPoint x="630" y="695" as="sourcePoint" />
            <mxPoint x="680" y="740" as="targetPoint" />
          </mxGeometry>
        </mxCell>
        <mxCell id="qj61X7QXaPmRDXE9Q4Wi-75" value="" style="endArrow=classic;html=1;rounded=0;entryX=0.057;entryY=0.267;entryDx=0;entryDy=0;exitX=0.942;exitY=1.05;exitDx=0;exitDy=0;exitPerimeter=0;entryPerimeter=0;labelBackgroundColor=none;strokeColor=#E07A5F;fontColor=default;" edge="1" parent="WIyWlLk6GJQsqaUBKTNV-1" source="qj61X7QXaPmRDXE9Q4Wi-61" target="qj61X7QXaPmRDXE9Q4Wi-65">
          <mxGeometry width="50" height="50" relative="1" as="geometry">
            <mxPoint x="619" y="487" as="sourcePoint" />
            <mxPoint x="680" y="570" as="targetPoint" />
          </mxGeometry>
        </mxCell>
        <mxCell id="qj61X7QXaPmRDXE9Q4Wi-77" value="Blog" style="rounded=1;whiteSpace=wrap;html=1;fontSize=12;glass=0;strokeWidth=1;shadow=0;labelBackgroundColor=none;fillColor=#F2CC8F;strokeColor=#E07A5F;fontColor=#393C56;" vertex="1" parent="WIyWlLk6GJQsqaUBKTNV-1">
          <mxGeometry x="500" y="805" width="120" height="40" as="geometry" />
        </mxCell>
        <mxCell id="qj61X7QXaPmRDXE9Q4Wi-78" value="id_blog" style="ellipse;whiteSpace=wrap;html=1;labelBackgroundColor=none;fillColor=#F2CC8F;strokeColor=#E07A5F;fontColor=#393C56;" vertex="1" parent="WIyWlLk6GJQsqaUBKTNV-1">
          <mxGeometry x="652.5" y="795" width="70" height="30" as="geometry" />
        </mxCell>
        <mxCell id="qj61X7QXaPmRDXE9Q4Wi-79" value="fecha" style="ellipse;whiteSpace=wrap;html=1;labelBackgroundColor=none;fillColor=#F2CC8F;strokeColor=#E07A5F;fontColor=#393C56;" vertex="1" parent="WIyWlLk6GJQsqaUBKTNV-1">
          <mxGeometry x="642.5" y="835" width="90" height="30" as="geometry" />
        </mxCell>
        <mxCell id="qj61X7QXaPmRDXE9Q4Wi-80" value="imagen" style="ellipse;whiteSpace=wrap;html=1;labelBackgroundColor=none;fillColor=#F2CC8F;strokeColor=#E07A5F;fontColor=#393C56;" vertex="1" parent="WIyWlLk6GJQsqaUBKTNV-1">
          <mxGeometry x="652.5" y="875" width="70" height="30" as="geometry" />
        </mxCell>
        <mxCell id="qj61X7QXaPmRDXE9Q4Wi-81" value="titulo" style="ellipse;whiteSpace=wrap;html=1;labelBackgroundColor=none;fillColor=#F2CC8F;strokeColor=#E07A5F;fontColor=#393C56;" vertex="1" parent="WIyWlLk6GJQsqaUBKTNV-1">
          <mxGeometry x="652.5" y="915" width="70" height="30" as="geometry" />
        </mxCell>
        <mxCell id="qj61X7QXaPmRDXE9Q4Wi-82" value="articulo" style="ellipse;whiteSpace=wrap;html=1;labelBackgroundColor=none;fillColor=#F2CC8F;strokeColor=#E07A5F;fontColor=#393C56;" vertex="1" parent="WIyWlLk6GJQsqaUBKTNV-1">
          <mxGeometry x="572.5" y="915" width="70" height="30" as="geometry" />
        </mxCell>
        <mxCell id="qj61X7QXaPmRDXE9Q4Wi-83" value="id_admin" style="ellipse;whiteSpace=wrap;html=1;labelBackgroundColor=none;fillColor=#F2CC8F;strokeColor=#E07A5F;fontColor=#393C56;" vertex="1" parent="WIyWlLk6GJQsqaUBKTNV-1">
          <mxGeometry x="495" y="915" width="70" height="30" as="geometry" />
        </mxCell>
        <mxCell id="qj61X7QXaPmRDXE9Q4Wi-84" value="" style="endArrow=classic;html=1;rounded=0;entryX=0;entryY=0.5;entryDx=0;entryDy=0;exitX=1;exitY=0.25;exitDx=0;exitDy=0;labelBackgroundColor=none;strokeColor=#E07A5F;fontColor=default;" edge="1" parent="WIyWlLk6GJQsqaUBKTNV-1" target="qj61X7QXaPmRDXE9Q4Wi-78" source="qj61X7QXaPmRDXE9Q4Wi-77">
          <mxGeometry width="50" height="50" relative="1" as="geometry">
            <mxPoint x="630" y="810" as="sourcePoint" />
            <mxPoint x="662.5" y="680" as="targetPoint" />
          </mxGeometry>
        </mxCell>
        <mxCell id="qj61X7QXaPmRDXE9Q4Wi-85" value="" style="endArrow=classic;html=1;rounded=0;entryX=0;entryY=0.5;entryDx=0;entryDy=0;exitX=1;exitY=0.5;exitDx=0;exitDy=0;labelBackgroundColor=none;strokeColor=#E07A5F;fontColor=default;" edge="1" parent="WIyWlLk6GJQsqaUBKTNV-1" source="qj61X7QXaPmRDXE9Q4Wi-77" target="qj61X7QXaPmRDXE9Q4Wi-79">
          <mxGeometry width="50" height="50" relative="1" as="geometry">
            <mxPoint x="622.5" y="720" as="sourcePoint" />
            <mxPoint x="672.5" y="690" as="targetPoint" />
          </mxGeometry>
        </mxCell>
        <mxCell id="qj61X7QXaPmRDXE9Q4Wi-86" value="" style="endArrow=classic;html=1;rounded=0;entryX=0;entryY=0.5;entryDx=0;entryDy=0;exitX=1;exitY=1;exitDx=0;exitDy=0;labelBackgroundColor=none;strokeColor=#E07A5F;fontColor=default;" edge="1" parent="WIyWlLk6GJQsqaUBKTNV-1" source="qj61X7QXaPmRDXE9Q4Wi-77" target="qj61X7QXaPmRDXE9Q4Wi-80">
          <mxGeometry width="50" height="50" relative="1" as="geometry">
            <mxPoint x="632.5" y="730" as="sourcePoint" />
            <mxPoint x="682.5" y="700" as="targetPoint" />
          </mxGeometry>
        </mxCell>
        <mxCell id="qj61X7QXaPmRDXE9Q4Wi-87" value="" style="endArrow=classic;html=1;rounded=0;entryX=0.5;entryY=0;entryDx=0;entryDy=0;exitX=0.833;exitY=1.05;exitDx=0;exitDy=0;exitPerimeter=0;labelBackgroundColor=none;strokeColor=#E07A5F;fontColor=default;" edge="1" parent="WIyWlLk6GJQsqaUBKTNV-1" source="qj61X7QXaPmRDXE9Q4Wi-77" target="qj61X7QXaPmRDXE9Q4Wi-82">
          <mxGeometry width="50" height="50" relative="1" as="geometry">
            <mxPoint x="612.5" y="855" as="sourcePoint" />
            <mxPoint x="662.5" y="900" as="targetPoint" />
          </mxGeometry>
        </mxCell>
        <mxCell id="qj61X7QXaPmRDXE9Q4Wi-88" value="" style="endArrow=classic;html=1;rounded=0;entryX=0.5;entryY=0;entryDx=0;entryDy=0;exitX=0.5;exitY=1;exitDx=0;exitDy=0;labelBackgroundColor=none;strokeColor=#E07A5F;fontColor=default;" edge="1" parent="WIyWlLk6GJQsqaUBKTNV-1" source="qj61X7QXaPmRDXE9Q4Wi-77" target="qj61X7QXaPmRDXE9Q4Wi-83">
          <mxGeometry width="50" height="50" relative="1" as="geometry">
            <mxPoint x="632.5" y="875" as="sourcePoint" />
            <mxPoint x="682.5" y="920" as="targetPoint" />
          </mxGeometry>
        </mxCell>
        <mxCell id="qj61X7QXaPmRDXE9Q4Wi-89" value="" style="endArrow=classic;html=1;rounded=0;entryX=0.057;entryY=0.267;entryDx=0;entryDy=0;exitX=0.942;exitY=1.05;exitDx=0;exitDy=0;exitPerimeter=0;entryPerimeter=0;labelBackgroundColor=none;strokeColor=#E07A5F;fontColor=default;" edge="1" parent="WIyWlLk6GJQsqaUBKTNV-1" source="qj61X7QXaPmRDXE9Q4Wi-77" target="qj61X7QXaPmRDXE9Q4Wi-81">
          <mxGeometry width="50" height="50" relative="1" as="geometry">
            <mxPoint x="621.5" y="667" as="sourcePoint" />
            <mxPoint x="682.5" y="750" as="targetPoint" />
          </mxGeometry>
        </mxCell>
        <mxCell id="qj61X7QXaPmRDXE9Q4Wi-90" value="Factura" style="rounded=1;whiteSpace=wrap;html=1;fontSize=12;glass=0;strokeWidth=1;shadow=0;labelBackgroundColor=none;fillColor=#F2CC8F;strokeColor=#E07A5F;fontColor=#393C56;" vertex="1" parent="WIyWlLk6GJQsqaUBKTNV-1">
          <mxGeometry x="217.5" y="320" width="120" height="40" as="geometry" />
        </mxCell>
        <mxCell id="qj61X7QXaPmRDXE9Q4Wi-91" value="id_factura" style="ellipse;whiteSpace=wrap;html=1;labelBackgroundColor=none;fillColor=#F2CC8F;strokeColor=#E07A5F;fontColor=#393C56;" vertex="1" parent="WIyWlLk6GJQsqaUBKTNV-1">
          <mxGeometry x="100" y="285" width="70" height="30" as="geometry" />
        </mxCell>
        <mxCell id="qj61X7QXaPmRDXE9Q4Wi-92" value="total" style="ellipse;whiteSpace=wrap;html=1;labelBackgroundColor=none;fillColor=#F2CC8F;strokeColor=#E07A5F;fontColor=#393C56;" vertex="1" parent="WIyWlLk6GJQsqaUBKTNV-1">
          <mxGeometry x="90" y="320" width="90" height="30" as="geometry" />
        </mxCell>
        <mxCell id="qj61X7QXaPmRDXE9Q4Wi-93" value="tipo" style="ellipse;whiteSpace=wrap;html=1;labelBackgroundColor=none;fillColor=#F2CC8F;strokeColor=#E07A5F;fontColor=#393C56;" vertex="1" parent="WIyWlLk6GJQsqaUBKTNV-1">
          <mxGeometry x="100" y="355" width="70" height="30" as="geometry" />
        </mxCell>
        <mxCell id="qj61X7QXaPmRDXE9Q4Wi-95" value="fecha_cierre" style="ellipse;whiteSpace=wrap;html=1;labelBackgroundColor=none;fillColor=#F2CC8F;strokeColor=#E07A5F;fontColor=#393C56;" vertex="1" parent="WIyWlLk6GJQsqaUBKTNV-1">
          <mxGeometry x="193.75" y="400" width="82.5" height="30" as="geometry" />
        </mxCell>
        <mxCell id="qj61X7QXaPmRDXE9Q4Wi-96" value="id_usuario" style="ellipse;whiteSpace=wrap;html=1;labelBackgroundColor=none;fillColor=#F2CC8F;strokeColor=#E07A5F;fontColor=#393C56;" vertex="1" parent="WIyWlLk6GJQsqaUBKTNV-1">
          <mxGeometry x="125" y="390" width="70" height="30" as="geometry" />
        </mxCell>
        <mxCell id="qj61X7QXaPmRDXE9Q4Wi-97" value="" style="endArrow=classic;html=1;rounded=0;entryX=1;entryY=0.5;entryDx=0;entryDy=0;labelBackgroundColor=none;strokeColor=#E07A5F;fontColor=default;exitX=0;exitY=0;exitDx=0;exitDy=0;" edge="1" parent="WIyWlLk6GJQsqaUBKTNV-1" target="qj61X7QXaPmRDXE9Q4Wi-91" source="qj61X7QXaPmRDXE9Q4Wi-90">
          <mxGeometry width="50" height="50" relative="1" as="geometry">
            <mxPoint x="337.5" y="325" as="sourcePoint" />
            <mxPoint x="397.5" y="195" as="targetPoint" />
          </mxGeometry>
        </mxCell>
        <mxCell id="qj61X7QXaPmRDXE9Q4Wi-98" value="" style="endArrow=classic;html=1;rounded=0;labelBackgroundColor=none;strokeColor=#E07A5F;fontColor=default;" edge="1" parent="WIyWlLk6GJQsqaUBKTNV-1">
          <mxGeometry width="50" height="50" relative="1" as="geometry">
            <mxPoint x="220" y="335" as="sourcePoint" />
            <mxPoint x="180" y="335" as="targetPoint" />
          </mxGeometry>
        </mxCell>
        <mxCell id="qj61X7QXaPmRDXE9Q4Wi-99" value="" style="endArrow=classic;html=1;rounded=0;entryX=1;entryY=0.5;entryDx=0;entryDy=0;exitX=0;exitY=1;exitDx=0;exitDy=0;labelBackgroundColor=none;strokeColor=#E07A5F;fontColor=default;" edge="1" parent="WIyWlLk6GJQsqaUBKTNV-1" source="qj61X7QXaPmRDXE9Q4Wi-90" target="qj61X7QXaPmRDXE9Q4Wi-93">
          <mxGeometry width="50" height="50" relative="1" as="geometry">
            <mxPoint x="367.5" y="245" as="sourcePoint" />
            <mxPoint x="417.5" y="215" as="targetPoint" />
          </mxGeometry>
        </mxCell>
        <mxCell id="qj61X7QXaPmRDXE9Q4Wi-100" value="" style="endArrow=classic;html=1;rounded=0;entryX=0.5;entryY=0;entryDx=0;entryDy=0;exitX=0.5;exitY=1;exitDx=0;exitDy=0;labelBackgroundColor=none;strokeColor=#E07A5F;fontColor=default;" edge="1" parent="WIyWlLk6GJQsqaUBKTNV-1" source="qj61X7QXaPmRDXE9Q4Wi-90" target="qj61X7QXaPmRDXE9Q4Wi-95">
          <mxGeometry width="50" height="50" relative="1" as="geometry">
            <mxPoint x="347.5" y="370" as="sourcePoint" />
            <mxPoint x="397.5" y="415" as="targetPoint" />
          </mxGeometry>
        </mxCell>
        <mxCell id="qj61X7QXaPmRDXE9Q4Wi-101" value="" style="endArrow=classic;html=1;rounded=0;entryX=0.5;entryY=0;entryDx=0;entryDy=0;exitX=0.25;exitY=1;exitDx=0;exitDy=0;labelBackgroundColor=none;strokeColor=#E07A5F;fontColor=default;" edge="1" parent="WIyWlLk6GJQsqaUBKTNV-1" source="qj61X7QXaPmRDXE9Q4Wi-90" target="qj61X7QXaPmRDXE9Q4Wi-96">
          <mxGeometry width="50" height="50" relative="1" as="geometry">
            <mxPoint x="367.5" y="390" as="sourcePoint" />
            <mxPoint x="417.5" y="435" as="targetPoint" />
          </mxGeometry>
        </mxCell>
        <mxCell id="qj61X7QXaPmRDXE9Q4Wi-105" value="CRUD&lt;br&gt;(Crea, Lee , Actualiza y Borra)" style="rhombus;whiteSpace=wrap;html=1;labelBackgroundColor=none;fillColor=#F2CC8F;strokeColor=#E07A5F;fontColor=#393C56;" vertex="1" parent="WIyWlLk6GJQsqaUBKTNV-1">
          <mxGeometry x="320" y="567.5" width="155" height="115" as="geometry" />
        </mxCell>
        <mxCell id="qj61X7QXaPmRDXE9Q4Wi-106" value="" style="endArrow=none;html=1;rounded=0;exitX=1;exitY=0.5;exitDx=0;exitDy=0;endFill=0;labelBackgroundColor=none;strokeColor=#E07A5F;fontColor=default;entryX=0;entryY=0.5;entryDx=0;entryDy=0;" edge="1" parent="WIyWlLk6GJQsqaUBKTNV-1" source="WIyWlLk6GJQsqaUBKTNV-11" target="qj61X7QXaPmRDXE9Q4Wi-105">
          <mxGeometry width="50" height="50" relative="1" as="geometry">
            <mxPoint x="980" y="645" as="sourcePoint" />
            <mxPoint x="1030" y="595" as="targetPoint" />
          </mxGeometry>
        </mxCell>
        <mxCell id="qj61X7QXaPmRDXE9Q4Wi-107" value="" style="endArrow=classic;html=1;rounded=0;exitX=1;exitY=0;exitDx=0;exitDy=0;entryX=0;entryY=0.25;entryDx=0;entryDy=0;labelBackgroundColor=none;strokeColor=#E07A5F;fontColor=default;" edge="1" parent="WIyWlLk6GJQsqaUBKTNV-1" source="qj61X7QXaPmRDXE9Q4Wi-105" target="qj61X7QXaPmRDXE9Q4Wi-43">
          <mxGeometry width="50" height="50" relative="1" as="geometry">
            <mxPoint x="750" y="515" as="sourcePoint" />
            <mxPoint x="800" y="465" as="targetPoint" />
          </mxGeometry>
        </mxCell>
        <mxCell id="qj61X7QXaPmRDXE9Q4Wi-108" value="" style="endArrow=classic;html=1;rounded=0;exitX=1;exitY=0.5;exitDx=0;exitDy=0;entryX=0;entryY=0.25;entryDx=0;entryDy=0;labelBackgroundColor=none;strokeColor=#E07A5F;fontColor=default;" edge="1" parent="WIyWlLk6GJQsqaUBKTNV-1" source="qj61X7QXaPmRDXE9Q4Wi-105" target="qj61X7QXaPmRDXE9Q4Wi-61">
          <mxGeometry width="50" height="50" relative="1" as="geometry">
            <mxPoint x="308" y="606" as="sourcePoint" />
            <mxPoint x="510" y="465" as="targetPoint" />
          </mxGeometry>
        </mxCell>
        <mxCell id="qj61X7QXaPmRDXE9Q4Wi-109" value="" style="endArrow=classic;html=1;rounded=0;exitX=1;exitY=1;exitDx=0;exitDy=0;entryX=0;entryY=0.5;entryDx=0;entryDy=0;labelBackgroundColor=none;strokeColor=#E07A5F;fontColor=default;" edge="1" parent="WIyWlLk6GJQsqaUBKTNV-1" source="qj61X7QXaPmRDXE9Q4Wi-105" target="qj61X7QXaPmRDXE9Q4Wi-77">
          <mxGeometry width="50" height="50" relative="1" as="geometry">
            <mxPoint x="335" y="633" as="sourcePoint" />
            <mxPoint x="510" y="635" as="targetPoint" />
          </mxGeometry>
        </mxCell>
        <mxCell id="qj61X7QXaPmRDXE9Q4Wi-110" value="Hace" style="rhombus;whiteSpace=wrap;html=1;labelBackgroundColor=none;fillColor=#F2CC8F;strokeColor=#E07A5F;fontColor=#393C56;" vertex="1" parent="WIyWlLk6GJQsqaUBKTNV-1">
          <mxGeometry x="301.25" y="180" width="90" height="80" as="geometry" />
        </mxCell>
        <mxCell id="qj61X7QXaPmRDXE9Q4Wi-112" value="" style="endArrow=none;html=1;rounded=0;exitX=0.5;exitY=0;exitDx=0;exitDy=0;entryX=0.75;entryY=1;entryDx=0;entryDy=0;labelBackgroundColor=none;strokeColor=#E07A5F;fontColor=default;" edge="1" parent="WIyWlLk6GJQsqaUBKTNV-1" source="qj61X7QXaPmRDXE9Q4Wi-110" target="WIyWlLk6GJQsqaUBKTNV-3">
          <mxGeometry width="50" height="50" relative="1" as="geometry">
            <mxPoint x="321.25" y="380" as="sourcePoint" />
            <mxPoint x="271.25" y="160" as="targetPoint" />
          </mxGeometry>
        </mxCell>
        <mxCell id="qj61X7QXaPmRDXE9Q4Wi-113" value="" style="endArrow=classic;html=1;rounded=0;exitX=1;exitY=0.5;exitDx=0;exitDy=0;entryX=0;entryY=0.25;entryDx=0;entryDy=0;labelBackgroundColor=none;strokeColor=#E07A5F;fontColor=default;" edge="1" parent="WIyWlLk6GJQsqaUBKTNV-1" source="qj61X7QXaPmRDXE9Q4Wi-110" target="qj61X7QXaPmRDXE9Q4Wi-29">
          <mxGeometry width="50" height="50" relative="1" as="geometry">
            <mxPoint x="1101.25" y="310" as="sourcePoint" />
            <mxPoint x="1151.25" y="260" as="targetPoint" />
          </mxGeometry>
        </mxCell>
        <mxCell id="qj61X7QXaPmRDXE9Q4Wi-114" value="Tiene" style="rhombus;whiteSpace=wrap;html=1;labelBackgroundColor=none;fillColor=#F2CC8F;strokeColor=#E07A5F;fontColor=#393C56;" vertex="1" parent="WIyWlLk6GJQsqaUBKTNV-1">
          <mxGeometry x="411.25" y="280" width="90" height="80" as="geometry" />
        </mxCell>
        <mxCell id="qj61X7QXaPmRDXE9Q4Wi-115" value="" style="endArrow=none;html=1;rounded=0;exitX=1;exitY=0;exitDx=0;exitDy=0;labelBackgroundColor=none;strokeColor=#E07A5F;fontColor=default;" edge="1" parent="WIyWlLk6GJQsqaUBKTNV-1" source="qj61X7QXaPmRDXE9Q4Wi-114" target="qj61X7QXaPmRDXE9Q4Wi-29">
          <mxGeometry width="50" height="50" relative="1" as="geometry">
            <mxPoint x="421.25" y="225" as="sourcePoint" />
            <mxPoint x="471.25" y="175" as="targetPoint" />
          </mxGeometry>
        </mxCell>
        <mxCell id="qj61X7QXaPmRDXE9Q4Wi-116" value="" style="endArrow=classic;html=1;rounded=0;entryX=1;entryY=0.5;entryDx=0;entryDy=0;exitX=0;exitY=1;exitDx=0;exitDy=0;labelBackgroundColor=none;strokeColor=#E07A5F;fontColor=default;" edge="1" parent="WIyWlLk6GJQsqaUBKTNV-1" source="qj61X7QXaPmRDXE9Q4Wi-114" target="qj61X7QXaPmRDXE9Q4Wi-90">
          <mxGeometry width="50" height="50" relative="1" as="geometry">
            <mxPoint x="1101.25" y="310" as="sourcePoint" />
            <mxPoint x="1151.25" y="260" as="targetPoint" />
          </mxGeometry>
        </mxCell>
        <mxCell id="qj61X7QXaPmRDXE9Q4Wi-117" value="" style="endArrow=classic;html=1;rounded=0;entryX=0;entryY=1;entryDx=0;entryDy=0;exitX=0.75;exitY=0;exitDx=0;exitDy=0;labelBackgroundColor=none;strokeColor=#E07A5F;fontColor=default;" edge="1" parent="WIyWlLk6GJQsqaUBKTNV-1" source="WIyWlLk6GJQsqaUBKTNV-11" target="qj61X7QXaPmRDXE9Q4Wi-7">
          <mxGeometry width="50" height="50" relative="1" as="geometry">
            <mxPoint x="243" y="617" as="sourcePoint" />
            <mxPoint x="245" y="585" as="targetPoint" />
          </mxGeometry>
        </mxCell>
        <mxCell id="qj61X7QXaPmRDXE9Q4Wi-119" value="" style="endArrow=classic;html=1;rounded=0;exitX=0.942;exitY=1.05;exitDx=0;exitDy=0;exitPerimeter=0;labelBackgroundColor=none;strokeColor=#E07A5F;fontColor=default;" edge="1" parent="WIyWlLk6GJQsqaUBKTNV-1" source="qj61X7QXaPmRDXE9Q4Wi-90" target="qj61X7QXaPmRDXE9Q4Wi-94">
          <mxGeometry width="50" height="50" relative="1" as="geometry">
            <mxPoint x="330.25" y="362" as="sourcePoint" />
            <mxPoint x="328.34894010990706" y="400.00205805830774" as="targetPoint" />
          </mxGeometry>
        </mxCell>
        <mxCell id="qj61X7QXaPmRDXE9Q4Wi-94" value="fecha_apertura" style="ellipse;whiteSpace=wrap;html=1;labelBackgroundColor=none;fillColor=#F2CC8F;strokeColor=#E07A5F;fontColor=#393C56;" vertex="1" parent="WIyWlLk6GJQsqaUBKTNV-1">
          <mxGeometry x="276.25" y="400" width="102.5" height="30" as="geometry" />
        </mxCell>
      </root>
    </mxGraphModel>
  </diagram>
</mxfile>
